<svg id="Layer_1" data-name="Layer 1" xmlns="http://www.w3.org/2000/svg" viewBox="0 0 91.38 29.06"><defs><style>.cls-1{fill:#cf0a2c;}.cls-2{fill:#022a3a;}.cls-3{fill:#00609c;}.cls-4{fill:#ff4338;}</style></defs><title>cis_logo_rgb</title><path class="cls-1" d="M5.27,16.52a2.35,2.35,0,0,0-1.45-.45,2.16,2.16,0,0,0-2.15,2.32A2.24,2.24,0,0,0,4,20.86a3.28,3.28,0,0,0,1.36-.28l.21.57a3.81,3.81,0,0,1-.8.29,3.29,3.29,0,0,1-.82.1,3,3,0,0,1-3-3.1,2.94,2.94,0,0,1,3-3A3.28,3.28,0,0,1,5,15.6a2.57,2.57,0,0,1,.68.37Z"/><path class="cls-1" d="M10.65,21.42,9,18.89H8.23v2.54H7.5V15.51H9.3a1.72,1.72,0,0,1,1.4.44,1.63,1.63,0,0,1,.47,1.16,1.69,1.69,0,0,1-.52,1.23,1.58,1.58,0,0,1-.9.45l1.75,2.64ZM10,16.29c-.18-.14-.33-.17-.86-.17h-1v2.14h1a1,1,0,0,0,1.18-1.16A1,1,0,0,0,10,16.29Z"/><path class="cls-1" d="M13.4,21.42V15.51h3.33v.62H14.14v2h2.14v.62H14.14V20.8h2.67v.62Z"/><path class="cls-1" d="M22.4,21.42l-.61-1.75H19.4l-.61,1.75H18l2.21-6.09H21l2.2,6.09Zm-1.8-5.13-1,2.71h1.93Z"/><path class="cls-1" d="M26.09,16.13v5.3h-.73v-5.3h-2v-.62h4.68v.62Z"/><path class="cls-1" d="M29.79,21.42V15.51h.73v5.92Z"/><path class="cls-1" d="M35,21.58h-.45l-2.33-6.07H33l1.75,4.62a1.1,1.1,0,0,1,.06.29.78.78,0,0,1,.05-.29l1.69-4.62h.74Z"/><path class="cls-1" d="M39,21.42V15.51h3.33v.62H39.78v2h2.14v.62H39.78V20.8h2.67v.62Z"/><path class="cls-1" d="M58.92,21.42V15.51H60v5.92Z"/><path class="cls-1" d="M66.25,21.48l-2.54-3.83-.12-.23-.07-.12a1,1,0,0,1-.08-.21v4.34H62.36V15.51h1.3l2.48,3.89.06.13.05.12.05.15.05.11V15.51h1.07v6Z"/><path class="cls-1" d="M70.91,16.47V18H73v.95H70.91v2.48H69.78V15.51h3.67v1Z"/><path class="cls-1" d="M77.75,21.54a3,3,0,0,1-3.15-3.07,3.14,3.14,0,0,1,6.28,0A3,3,0,0,1,77.75,21.54Zm0-5.16a2,2,0,0,0-1.95,2.09,1.95,1.95,0,1,0,3.88,0A2,2,0,0,0,77.75,16.38Z"/><ellipse class="cls-1" cx="53.27" cy="10.31" rx="1.82" ry="1.6" transform="matrix(0.34, -0.94, 0.94, 0.34, 25.4, 56.86)"/><path class="cls-1" d="M51.5,13.13l2.91.36s-2.66,11.21,6,10.61C60.41,24.09,49.79,27,51.5,13.13Z"/><path class="cls-2" d="M64.63,25.73a1.61,1.61,0,0,0-.34-.17,1.69,1.69,0,0,0-.44-.07c-.36,0-.61.18-.61.45s.14.36.79.7a2.75,2.75,0,0,1,.5.33.76.76,0,0,1,.25.58c0,.55-.41.89-1.05.89a1.6,1.6,0,0,1-.59-.11,2,2,0,0,1-.41-.24l.21-.32a1.65,1.65,0,0,0,.37.21,1.29,1.29,0,0,0,.46.08c.38,0,.61-.18.61-.48a.46.46,0,0,0,0-.23.72.72,0,0,0-.27-.26l-.53-.29c-.48-.26-.68-.51-.68-.84,0-.51.42-.85,1.06-.85a1.79,1.79,0,0,1,.54.08,1.77,1.77,0,0,1,.39.19Z"/><path class="cls-2" d="M68,26.89v1.49h-.4V26.92l-1.07-1.74H67l.86,1.37.88-1.37h.42Z"/><path class="cls-2" d="M72.79,25.73a1.63,1.63,0,0,0-.34-.17A1.7,1.7,0,0,0,72,25.5c-.36,0-.61.18-.61.45s.14.36.79.7a2.77,2.77,0,0,1,.5.33.76.76,0,0,1,.25.58c0,.55-.41.89-1.05.89a1.6,1.6,0,0,1-.59-.11,2,2,0,0,1-.41-.24l.2-.32a1.67,1.67,0,0,0,.37.21,1.3,1.3,0,0,0,.46.08c.38,0,.61-.18.61-.48a.46.46,0,0,0,0-.23.72.72,0,0,0-.27-.26l-.53-.29c-.48-.26-.68-.51-.68-.84,0-.51.42-.85,1.06-.85a1.8,1.8,0,0,1,.54.08,1.77,1.77,0,0,1,.39.19Z"/><path class="cls-2" d="M76.2,25.52v2.87h-.4V25.52H74.73v-.33h2.53v.33Z"/><path class="cls-2" d="M79.29,28.39v-3.2h1.8v.33h-1.4v1.07h1.16v.33H79.69v1.13h1.45v.33Z"/><path class="cls-2" d="M86.16,28.39v-2.8A1.83,1.83,0,0,1,86,26l-.95,2.41h-.36L83.85,26a2,2,0,0,1-.13-.43v2.77h-.36v-3.2h.55l1,2.56a.88.88,0,0,1,.06.24.85.85,0,0,1,.06-.24l1-2.56h.55v3.2Z"/><path class="cls-2" d="M90.69,25.73a1.61,1.61,0,0,0-.34-.17,1.69,1.69,0,0,0-.44-.07c-.36,0-.61.18-.61.45s.14.36.79.7a2.75,2.75,0,0,1,.5.33.76.76,0,0,1,.25.58c0,.55-.41.89-1.05.89a1.6,1.6,0,0,1-.59-.11,2,2,0,0,1-.41-.24l.2-.32a1.65,1.65,0,0,0,.37.21,1.29,1.29,0,0,0,.46.08c.38,0,.61-.18.61-.48a.46.46,0,0,0,0-.23.72.72,0,0,0-.27-.26l-.53-.29c-.48-.26-.68-.51-.68-.84,0-.51.42-.85,1.06-.85a1.57,1.57,0,0,1,.93.27Z"/><path class="cls-3" d="M56.66.75A12.86,12.86,0,1,0,59,26.37l.23,0A12.34,12.34,0,1,1,70.66,12.61c0-.08,0-.15,0-.23A12.86,12.86,0,0,0,56.66.75Z"/><path class="cls-2" d="M58.46,3.63A11.34,11.34,0,0,1,70.7,13.19c0-.25,0-.51,0-.76a13,13,0,0,0-.19-1.32c.08.42.14.85.18,1.28,0,.08,0,.15,0,.23A12.34,12.34,0,1,0,59.2,26.34l.61-.08A11.35,11.35,0,0,1,58.46,3.63Z"/><path class="cls-4" d="M52.21,9.92A1.71,1.71,0,0,1,54,8.71l-.21-.1a1.65,1.65,0,0,0-2,1.16,1.65,1.65,0,0,0,.79,2.17l.23.06A1.71,1.71,0,0,1,52.21,9.92Z"/><path class="cls-4" d="M54.46,13.41l-3-.33s-.71,4.35.63,7.07C52.05,20.15,50.38,14.83,54.46,13.41Z"/></svg>