<svg width="360" height="360" viewBox="0 0 360 360" fill="none" xmlns="http://www.w3.org/2000/svg">
<path d="M108.277 98.9711L106.412 102.359L109.223 105.016L127.212 122.017C125.699 123.503 124.25 125.049 122.864 126.649L104.917 109.682L102.107 107.026L98.8294 109.077C94.5626 111.747 89.6207 113.325 84.309 113.325C69.121 113.325 56.8094 101.023 56.8094 85.8408C56.8094 70.662 69.1179 58.3719 84.309 58.3719C99.4947 58.3719 111.786 70.6643 111.786 85.8408C111.786 90.5494 110.477 94.9741 108.277 98.9711Z" stroke="url(#paint0_linear_52_98)" stroke-width="10"/>
<path d="M257.657 65.7145L253.952 64.6545L251.983 67.9674L225.647 112.286C223.881 111.13 222.066 110.045 220.206 109.035L246.464 64.8336L248.437 61.5127L245.722 58.7654C240.797 53.7828 237.767 46.9789 237.767 39.4468C237.767 24.2618 250.051 11.9778 265.236 11.9778C280.455 11.9778 292.743 24.2733 292.743 39.4468C292.743 54.6302 280.453 66.931 265.236 66.931C262.746 66.931 260.264 66.4604 257.657 65.7145Z" stroke="url(#paint1_linear_52_98)" stroke-width="10"/>
<path d="M296.654 186.715L300.493 187.093L301.834 183.477C305.729 172.968 315.754 165.483 327.539 165.483C342.714 165.483 355 177.78 355 192.952C355 208.13 342.716 220.414 327.539 220.414C313.857 220.414 302.553 210.374 300.484 197.245L299.882 193.427L296.036 193.047L260.99 189.586C261.283 187.503 261.498 185.392 261.626 183.257L296.654 186.715Z" stroke="url(#paint2_linear_52_98)" stroke-width="10"/>
<path d="M211.103 289.299L211.965 293.066L215.828 293.182C230.634 293.623 242.485 305.69 242.465 320.562V320.569C242.465 335.737 230.182 348.022 215.004 348.022C199.783 348.022 187.505 335.74 187.505 320.569C187.505 310.016 193.526 300.93 202.363 296.306L205.78 294.518L204.919 290.759L197.068 256.506C199.169 256.108 201.236 255.626 203.269 255.068L211.103 289.299Z" stroke="url(#paint3_linear_52_98)" stroke-width="10"/>
<path d="M55.4617 213.92L57.5748 217.149L61.2334 215.923L106.461 200.771C107.066 202.819 107.753 204.826 108.511 206.793L63.1511 221.982L59.4301 223.228L59.756 227.139C59.7926 227.578 59.8586 228.049 59.8968 228.323C59.9049 228.381 59.9118 228.43 59.9169 228.468C59.9576 228.772 59.9608 228.866 59.9608 228.899C59.9608 244.096 47.6416 256.391 32.4689 256.391C17.287 256.391 5 244.102 5 228.899C5 213.721 17.2847 201.43 32.4689 201.43C42.073 201.43 50.5327 206.39 55.4617 213.92Z" stroke="url(#paint4_linear_52_98)" stroke-width="10"/>
<path d="M182.528 234.337C213.286 234.337 238.22 209.402 238.22 178.644C238.22 147.886 213.286 122.951 182.528 122.951C151.769 122.951 126.835 147.886 126.835 178.644C126.835 209.402 151.769 234.337 182.528 234.337Z" fill="url(#paint5_linear_52_98)"/>
<defs>
<linearGradient id="paint0_linear_52_98" x1="93.1826" y1="53.3719" x2="93.1826" y2="133.989" gradientUnits="userSpaceOnUse">
<stop stop-color="#B7CA9A"/>
<stop offset="1" stop-color="#778E54"/>
</linearGradient>
<linearGradient id="paint1_linear_52_98" x1="255.451" y1="6.97784" x2="255.451" y2="119.489" gradientUnits="userSpaceOnUse">
<stop stop-color="#B7CA9A"/>
<stop offset="1" stop-color="#778E54"/>
</linearGradient>
<linearGradient id="paint2_linear_52_98" x1="307.566" y1="160.483" x2="307.566" y2="225.414" gradientUnits="userSpaceOnUse">
<stop stop-color="#B7CA9A"/>
<stop offset="1" stop-color="#778E54"/>
</linearGradient>
<linearGradient id="paint3_linear_52_98" x1="214.985" y1="248.691" x2="214.985" y2="353.022" gradientUnits="userSpaceOnUse">
<stop stop-color="#B7CA9A"/>
<stop offset="1" stop-color="#778E54"/>
</linearGradient>
<linearGradient id="paint4_linear_52_98" x1="57.6115" y1="194.323" x2="57.6115" y2="261.391" gradientUnits="userSpaceOnUse">
<stop stop-color="#B7CA9A"/>
<stop offset="1" stop-color="#778E54"/>
</linearGradient>
<linearGradient id="paint5_linear_52_98" x1="182.528" y1="122.951" x2="182.528" y2="234.337" gradientUnits="userSpaceOnUse">
<stop stop-color="#B7CA9A"/>
<stop offset="1" stop-color="#778E54"/>
</linearGradient>
</defs>
</svg>
