<svg width="35" height="34" viewBox="0 0 35 34" fill="none" xmlns="http://www.w3.org/2000/svg">
<path d="M12.5 33.6667C12.058 33.6667 11.6341 33.4911 11.3215 33.1786C11.0089 32.866 10.8333 32.4421 10.8333 32V27H4.16668C3.28262 27 2.43478 26.6488 1.80965 26.0237C1.18453 25.3986 0.833344 24.5508 0.833344 23.6667V3.66671C0.833344 1.81671 2.33334 0.333374 4.16668 0.333374H30.8333C31.7174 0.333374 32.5652 0.684563 33.1904 1.30968C33.8155 1.93481 34.1667 2.78265 34.1667 3.66671V23.6667C34.1667 24.5508 33.8155 25.3986 33.1904 26.0237C32.5652 26.6488 31.7174 27 30.8333 27H20.6667L14.5 33.1834C14.1667 33.5 13.75 33.6667 13.3333 33.6667H12.5ZM14.1667 23.6667V28.8L19.3 23.6667H30.8333V3.66671H4.16668V23.6667H14.1667Z" fill="white"/>
</svg>
